<svg xmlns="http://www.w3.org/2000/svg" width="1600" height="900" viewBox="0 0 1600 900">
  <rect width="1600" height="900" fill="#0f172a"/>
  <rect x="120" y="110" width="1360" height="680" rx="28" fill="#111c33" stroke="#2f3f63" stroke-width="2"/>
  <rect x="200" y="200" width="420" height="500" rx="48" fill="#020617" stroke="#334155" stroke-width="3"/>
  <rect x="240" y="250" width="340" height="400" rx="18" fill="#0b1220"/>
  <circle cx="410" cy="230" r="6" fill="#334155"/>
  <polyline points="270,470 310,430 350,500 390,380 430,520 470,410 510,470 550,450" fill="none" stroke="#38bdf8" stroke-width="6" stroke-linecap="round" stroke-linejoin="round"/>
  <polyline points="270,560 310,540 350,580 390,520 430,600 470,540 510,570 550,555" fill="none" stroke="#0f766e" stroke-width="5" stroke-linecap="round" stroke-linejoin="round" opacity="0.85"/>
  <circle cx="410" cy="330" r="46" fill="none" stroke="#1d4ed8" stroke-width="6"/>
  <circle cx="410" cy="330" r="20" fill="#1d4ed8"/>
  <rect x="720" y="250" width="640" height="80" rx="16" fill="#0f766e"/>
  <text x="752" y="300" fill="#ffffff" font-family="Arial, sans-serif" font-size="30" font-weight="700">OWNER &#183; pattern match</text>
  <rect x="720" y="360" width="640" height="80" rx="16" fill="#b45309"/>
  <text x="752" y="410" fill="#ffffff" font-family="Arial, sans-serif" font-size="30" font-weight="700">CHECK &#183; motion shift</text>
  <rect x="720" y="470" width="640" height="80" rx="16" fill="#7f1d1d"/>
  <text x="752" y="520" fill="#ffffff" font-family="Arial, sans-serif" font-size="30" font-weight="700">BLOCK &#183; handoff / unattended</text>
  <text x="200" y="745" fill="#ffffff" font-family="Arial, sans-serif" font-size="42" font-weight="700">Continuous Authentication with Phone Sensors</text>
  <text x="200" y="788" fill="#cbd5e1" font-family="Arial, sans-serif" font-size="26">Behavioral biometrics, honestly scoped for production</text>
</svg>
