<svg xmlns="http://www.w3.org/2000/svg" width="1600" height="900" viewBox="0 0 1600 900">
  <rect width="1600" height="900" fill="#0f172a"/>
  <rect x="120" y="110" width="1360" height="680" rx="28" fill="#111c33" stroke="#2f3f63" stroke-width="2"/>
  <rect x="180" y="190" width="520" height="420" rx="26" fill="#e2e8f0"/>
  <rect x="180" y="190" width="520" height="56" rx="26" fill="#1d4ed8"/>
  <rect x="240" y="290" width="360" height="18" rx="9" fill="#1e293b"/>
  <rect x="240" y="330" width="430" height="12" rx="6" fill="#94a3b8"/>
  <rect x="240" y="360" width="400" height="12" rx="6" fill="#94a3b8"/>
  <rect x="240" y="405" width="120" height="120" rx="18" fill="#dbeafe"/>
  <rect x="375" y="405" width="120" height="120" rx="18" fill="#dcfce7"/>
  <rect x="510" y="405" width="120" height="120" rx="18" fill="#fef3c7"/>
  <rect x="790" y="210" width="650" height="500" rx="30" fill="#020617" stroke="#334155" stroke-width="2"/>
  <rect x="840" y="260" width="180" height="16" rx="8" fill="#38bdf8"/>
  <rect x="840" y="300" width="480" height="12" rx="6" fill="#64748b"/>
  <rect x="840" y="330" width="430" height="12" rx="6" fill="#64748b"/>
  <rect x="840" y="380" width="520" height="64" rx="14" fill="#0f766e"/>
  <rect x="840" y="460" width="520" height="64" rx="14" fill="#1d4ed8"/>
  <text x="180" y="705" fill="#ffffff" font-family="Arial, sans-serif" font-size="42" font-weight="700">How to Build a RAG Chatbot</text>
  <text x="180" y="752" fill="#cbd5e1" font-family="Arial, sans-serif" font-size="26">Business documents, citations, and production retrieval</text>
</svg>
