<svg xmlns="http://www.w3.org/2000/svg" width="1600" height="900" viewBox="0 0 1600 900">
  <defs>
    <linearGradient id="bg" x1="0" y1="0" x2="1" y2="1">
      <stop offset="0%" stop-color="#052e2b"/>
      <stop offset="100%" stop-color="#0f766e"/>
    </linearGradient>
  </defs>
  <rect width="1600" height="900" fill="url(#bg)"/>
  <circle cx="1290" cy="130" r="200" fill="rgba(255,255,255,0.12)"/>
  <circle cx="260" cy="770" r="260" fill="rgba(255,255,255,0.08)"/>
  <rect x="120" y="120" width="1360" height="660" rx="24" fill="rgba(5,46,43,0.35)" stroke="rgba(255,255,255,0.22)"/>

  <rect x="220" y="215" width="780" height="445" rx="20" fill="#f8fafc"/>
  <rect x="220" y="215" width="780" height="56" rx="20" fill="#0f172a"/>
  <rect x="260" y="316" width="400" height="14" rx="7" fill="#0f766e"/>
  <rect x="260" y="344" width="650" height="10" rx="5" fill="#94a3b8"/>
  <rect x="260" y="368" width="620" height="10" rx="5" fill="#94a3b8"/>
  <rect x="260" y="392" width="530" height="10" rx="5" fill="#94a3b8"/>
  <rect x="260" y="438" width="170" height="115" rx="10" fill="#ccfbf1"/>
  <rect x="450" y="438" width="170" height="115" rx="10" fill="#dcfce7"/>
  <rect x="640" y="438" width="270" height="115" rx="10" fill="#dbeafe"/>

  <rect x="1045" y="245" width="245" height="500" rx="32" fill="#020617"/>
  <rect x="1060" y="280" width="215" height="420" rx="18" fill="#ecfeff"/>
  <rect x="1085" y="315" width="165" height="14" rx="7" fill="#0f766e"/>
  <rect x="1085" y="342" width="150" height="9" rx="4" fill="#64748b"/>
  <rect x="1085" y="365" width="140" height="9" rx="4" fill="#64748b"/>
  <rect x="1085" y="400" width="76" height="76" rx="12" fill="#a7f3d0"/>
  <rect x="1170" y="400" width="80" height="76" rx="12" fill="#bfdbfe"/>
  <rect x="1085" y="493" width="165" height="44" rx="10" fill="#0f766e"/>

  <text x="220" y="735" font-family="Manrope, Arial, sans-serif" font-size="34" font-weight="700" fill="#ffffff">Substance Recovery Check-In Assist: Implementation Guide for Healthcare Teams</text>
  <text x="220" y="772" font-family="Manrope, Arial, sans-serif" font-size="24" fill="#ccfbf1">Clinical Communication AI Blog</text>
</svg>
